<?xml version="1.0" ?>
<!DOCTYPE svg  PUBLIC '-//W3C//DTD SVG 1.1//EN'  'http://www.w3.org/Graphics/SVG/1.1/DTD/svg11.dtd'>
<!-- Uploaded to: SVG Repo, www.svgrepo.com, Generator: SVG Repo Mixer Tools -->
<svg fill="#000000" width="800px" height="800px" viewBox="0 0 64 64" style="fill-rule:evenodd;clip-rule:evenodd;stroke-linejoin:round;stroke-miterlimit:2;" version="1.1" xml:space="preserve" xmlns="http://www.w3.org/2000/svg" xmlns:serif="http://www.serif.com/" xmlns:xlink="http://www.w3.org/1999/xlink">
<g id="Expanded">
<path d="M32,59c14.902,-0 27,-12.098 27,-27c0,-14.902 -12.098,-27 -27,-27c-14.902,0 -27,12.098 -27,27c0,14.902 12.098,27 27,27Zm16.945,-2.948l2.172,2.172c0.39,0.39 1.024,0.39 1.414,-0c0.391,-0.391 0.391,-1.024 0,-1.414l-2.171,-2.172c-0.391,-0.39 -1.024,-0.39 -1.415,-0c-0.39,0.39 -0.39,1.024 0,1.414Zm-36.012,2.121l2.172,-2.171c0.39,-0.391 0.39,-1.024 -0,-1.415c-0.39,-0.39 -1.024,-0.39 -1.414,0l-2.172,2.172c-0.39,0.39 -0.39,1.024 0,1.414c0.39,0.391 1.024,0.391 1.414,0Zm-5.854,-24.173c0.994,12.536 11.252,22.48 23.921,22.98l0,-3.002c-11.012,-0.494 -19.928,-9.099 -20.91,-19.978l-3.011,0Zm46.831,0c-0.982,10.879 -9.898,19.484 -20.91,19.978l0,3.002c12.669,-0.5 22.927,-10.444 23.921,-22.98l-3.011,0Zm-43.855,21.395l2.171,-2.171c0.39,-0.391 0.39,-1.024 0,-1.415c-0.39,-0.39 -1.024,-0.39 -1.414,0l-2.172,2.172c-0.39,0.39 -0.39,1.024 0,1.414c0.391,0.391 1.024,0.391 1.415,0Zm41.668,-2.222l2.172,2.172c0.39,0.39 1.024,0.39 1.414,-0c0.391,-0.39 0.391,-1.024 0,-1.414l-2.171,-2.172c-0.391,-0.39 -1.024,-0.39 -1.415,0c-0.39,0.39 -0.39,1.024 0,1.414Zm2.879,-2.778l2.172,2.172c0.39,0.39 1.024,0.39 1.414,-0c0.39,-0.39 0.39,-1.024 0,-1.414l-2.172,-2.172c-0.39,-0.39 -1.024,-0.39 -1.414,-0c-0.39,0.39 -0.39,1.024 0,1.414Zm-47.326,2.122l2.172,-2.172c0.39,-0.39 0.39,-1.024 0,-1.414c-0.39,-0.391 -1.024,-0.391 -1.414,-0l-2.172,2.171c-0.39,0.391 -0.39,1.024 0,1.415c0.39,0.39 1.024,0.39 1.414,-0Zm27.018,-10.832c0.271,0.423 0.428,0.925 0.428,1.465c0,1.502 -1.22,2.722 -2.722,2.722c-1.502,-0 -2.722,-1.22 -2.722,-2.722c-0,-0.54 0.157,-1.042 0.428,-1.465c0.297,-0.465 0.162,-1.084 -0.303,-1.382c-0.464,-0.297 -1.084,-0.162 -1.381,0.303c-0.471,0.734 -0.744,1.607 -0.744,2.544c-0,2.606 2.116,4.722 4.722,4.722c2.606,-0 4.722,-2.116 4.722,-4.722c0,-0.937 -0.273,-1.81 -0.744,-2.544c-0.297,-0.465 -0.917,-0.6 -1.381,-0.303c-0.465,0.298 -0.6,0.917 -0.303,1.382Zm-1.294,1.751l0,-3.436c0,-0.552 -0.448,-1 -1,-1c-0.552,-0 -1,0.448 -1,1l0,3.436c0,0.552 0.448,1 1,1c0.552,-0 1,-0.448 1,-1Zm8,-34.764c-2.793,-1.08 -5.828,-1.672 -9,-1.672c-3.172,0 -6.207,0.592 -9,1.672l0,16.328c0,4.706 4.047,8.5 9,8.5c4.953,0 9,-3.794 9,-8.5l0,-16.328Zm-20,0.875c-8.289,4.073 -14,12.601 -14,22.453l3,0c0,-8.136 4.426,-15.247 11,-19.053l0,-3.4Zm22,0l0,3.4c6.574,3.806 11,10.917 11,19.053l3,0c-0,-9.852 -5.711,-18.38 -14,-22.453Zm-11,8.453c-3.863,0 -7,3.137 -7,7c0,3.863 3.137,7 7,7c3.863,-0 7,-3.137 7,-7c-0,-3.863 -3.137,-7 -7,-7Zm-26.138,-5.031l2.172,2.172c0.39,0.39 1.024,0.39 1.414,-0c0.39,-0.391 0.39,-1.024 0,-1.415l-2.172,-2.171c-0.39,-0.391 -1.024,-0.391 -1.414,-0c-0.39,0.39 -0.39,1.024 0,1.414Zm50.154,2.121l2.172,-2.171c0.39,-0.391 0.39,-1.024 0,-1.415c-0.39,-0.39 -1.024,-0.39 -1.414,0l-2.172,2.172c-0.39,0.39 -0.39,1.024 0,1.414c0.39,0.391 1.024,0.391 1.414,0Zm-2.878,-2.778l2.171,-2.172c0.391,-0.39 0.391,-1.023 0,-1.414c-0.39,-0.39 -1.024,-0.39 -1.414,0l-2.172,2.172c-0.39,0.39 -0.39,1.024 0,1.414c0.391,0.39 1.024,0.39 1.415,0Zm-44.498,-2.222l2.172,2.172c0.39,0.39 1.024,0.39 1.414,-0c0.39,-0.39 0.39,-1.024 0,-1.414l-2.171,-2.172c-0.391,-0.39 -1.024,-0.39 -1.415,-0c-0.39,0.39 -0.39,1.024 0,1.414Zm2.879,-2.778l2.172,2.172c0.39,0.39 1.024,0.39 1.414,-0c0.39,-0.391 0.39,-1.024 -0,-1.414l-2.172,-2.172c-0.39,-0.39 -1.024,-0.39 -1.414,-0c-0.39,0.39 -0.39,1.024 0,1.414Zm38.841,2.121l2.171,-2.171c0.391,-0.391 0.391,-1.024 0,-1.415c-0.39,-0.39 -1.024,-0.39 -1.414,0l-2.172,2.172c-0.39,0.39 -0.39,1.024 0,1.414c0.391,0.391 1.024,0.391 1.415,0Z"/>
</g>
</svg>