<?xml version="1.0" encoding="iso-8859-1"?>
<!-- Uploaded to: SVG Repo, www.svgrepo.com, Generator: SVG Repo Mixer Tools -->
<svg fill="#000000" height="800px" width="800px" version="1.1" id="Capa_1" xmlns="http://www.w3.org/2000/svg" xmlns:xlink="http://www.w3.org/1999/xlink" 
	 viewBox="0 0 463 463" xml:space="preserve">
<g>
	<path d="M375.5,0h-288C78.953,0,72,6.953,72,15.5v432c0,8.547,6.953,15.5,15.5,15.5h288c8.547,0,15.5-6.953,15.5-15.5v-432
		C391,6.953,384.047,0,375.5,0z M87,79h289v321H87V79z M87.5,15h288c0.275,0,0.5,0.224,0.5,0.5V64H87V15.5
		C87,15.224,87.225,15,87.5,15z M375.5,448h-288c-0.275,0-0.5-0.224-0.5-0.5V415h289v32.5C376,447.776,375.775,448,375.5,448z"/>
	<path d="M335.5,96h-208c-4.143,0-7.5,3.358-7.5,7.5s3.357,7.5,7.5,7.5h208c4.143,0,7.5-3.358,7.5-7.5S339.643,96,335.5,96z"/>
	<path d="M183.5,47h96c4.143,0,7.5-3.358,7.5-7.5s-3.357-7.5-7.5-7.5h-96c-4.143,0-7.5,3.358-7.5,7.5S179.357,47,183.5,47z"/>
	<path d="M311.5,47h8c4.143,0,7.5-3.358,7.5-7.5s-3.357-7.5-7.5-7.5h-8c-4.143,0-7.5,3.358-7.5,7.5S307.357,47,311.5,47z"/>
	<path d="M143.5,47h8c4.143,0,7.5-3.358,7.5-7.5s-3.357-7.5-7.5-7.5h-8c-4.143,0-7.5,3.358-7.5,7.5S139.357,47,143.5,47z"/>
</g>
</svg>