<?xml version="1.0" encoding="UTF-8" standalone="no"?>
<!DOCTYPE svg PUBLIC "-//W3C//DTD SVG 1.1//EN" "http://www.w3.org/Graphics/SVG/1.1/DTD/svg11.dtd">
<svg width="100%" height="100%" viewBox="0 0 100 100" version="1.1" xmlns="http://www.w3.org/2000/svg" xmlns:xlink="http://www.w3.org/1999/xlink" xml:space="preserve" xmlns:serif="http://www.serif.com/" style="fill-rule:evenodd;clip-rule:evenodd;stroke-miterlimit:10;">
    <g id="Layer_2_1_">
        <g id="Layer_1-2">
            <path d="M65.5,14.9L63.1,14.9" style="fill:none;fill-rule:nonzero;stroke:black;stroke-width:2px;"/>
            <path d="M70.4,14.9L68.1,14.9" style="fill:none;fill-rule:nonzero;stroke:black;stroke-width:2px;"/>
            <path d="M65.5,18.9L63.1,18.9" style="fill:none;fill-rule:nonzero;stroke:black;stroke-width:2px;"/>
            <path d="M70.4,18.9L68.1,18.9" style="fill:none;fill-rule:nonzero;stroke:black;stroke-width:2px;"/>
            <path d="M75.4,14.9L73,14.9" style="fill:none;fill-rule:nonzero;stroke:black;stroke-width:2px;"/>
            <path d="M75.4,18.9L73,18.9" style="fill:none;fill-rule:nonzero;stroke:black;stroke-width:2px;"/>
            <g transform="matrix(1,0,0,1,-38.3141,0)">
                <path d="M65.5,14.9L63.1,14.9" style="fill:none;fill-rule:nonzero;stroke:black;stroke-width:2px;"/>
            </g>
            <g transform="matrix(1,0,0,1,-38.3141,0)">
                <path d="M70.4,14.9L68.1,14.9" style="fill:none;fill-rule:nonzero;stroke:black;stroke-width:2px;"/>
            </g>
            <g transform="matrix(1,0,0,1,-38.3141,0)">
                <path d="M65.5,18.9L63.1,18.9" style="fill:none;fill-rule:nonzero;stroke:black;stroke-width:2px;"/>
            </g>
            <g transform="matrix(1,0,0,1,-38.3141,0)">
                <path d="M70.4,18.9L68.1,18.9" style="fill:none;fill-rule:nonzero;stroke:black;stroke-width:2px;"/>
            </g>
            <g transform="matrix(1,0,0,1,-38.3141,0)">
                <path d="M75.4,14.9L73,14.9" style="fill:none;fill-rule:nonzero;stroke:black;stroke-width:2px;"/>
            </g>
            <g transform="matrix(1,0,0,1,-38.3141,0)">
                <path d="M75.4,18.9L73,18.9" style="fill:none;fill-rule:nonzero;stroke:black;stroke-width:2px;"/>
            </g>
            <path d="M78,90L22,90C19.2,90 16.9,87.7 16.9,84.9L16.9,15.1C16.9,12.3 19.2,10 22,10L78,10C80.8,10 83.1,12.3 83.1,15.1L83.1,85C83.1,87.8 80.8,90 78,90Z" style="fill:none;fill-rule:nonzero;stroke:black;stroke-width:2px;"/>
            <path d="M83.1,23.8L16.9,23.8" style="fill:none;fill-rule:nonzero;stroke:black;stroke-width:2px;"/>
        </g>
        <g transform="matrix(6.43775,0,0,6.43775,-274.822,-241.338)">
            <g transform="matrix(12,0,0,12,53.3348,50.645)">
            </g>
            <text x="47.551px" y="50.645px" style="font-family:'Avenir-Book', 'Avenir';font-size:12px;">?</text>
        </g>
    </g>
</svg>
