<svg id="Layer_1" data-name="Layer 1" xmlns="http://www.w3.org/2000/svg" viewBox="0 0 48 48"><defs><style>.cls-1,.cls-2{fill:none;stroke-linecap:round;}.cls-1{stroke:#000;stroke-miterlimit:10;stroke-width:1.5px;}.cls-2{stroke:#010101;stroke-linejoin:round;stroke-width:2px;}.cls-3{fill:#010101;}</style></defs><path class="cls-1" d="M17.73,36s.55.48.84.76c.09.09.14.11.19.19h0l.16.2a1.32,1.32,0,0,1,.19.56.43.43,0,0,1,0,.05,2,2,0,0,1-.2.72m0,0S18,40,18,40.06l-.28.48a.56.56,0,0,0-.05.24.82.82,0,0,0,.14.44,5.73,5.73,0,0,0,.57.57c.25.22.48.42.49.44m0,0Z"/><path class="cls-1" d="M23,36s.55.48.84.76a1.69,1.69,0,0,1,.19.19h0l.15.2a1.19,1.19,0,0,1,.2.56v.05a1.63,1.63,0,0,1-.2.72m0,0-.94,1.6c-.06.13-.27.48-.27.48a.51.51,0,0,0-.06.24.76.76,0,0,0,.15.44,5.73,5.73,0,0,0,.57.57c.25.22.48.42.49.44m0,0Z"/><path class="cls-1" d="M28.26,36s.55.48.85.76a1,1,0,0,1,.18.19h0s.12.14.16.2a1.19,1.19,0,0,1,.2.56v.05a1.79,1.79,0,0,1-.2.72m0,0s-.89,1.5-.94,1.6l-.28.48a.56.56,0,0,0,0,.24.76.76,0,0,0,.15.44,5.26,5.26,0,0,0,.56.57l.5.44m0,0Z"/><rect class="cls-2" x="18.33" y="8.45" width="10.23" height="19.73"/><rect class="cls-2" x="5.91" y="28.23" width="35.07" height="4.38"/><circle class="cls-3" cx="20.4" cy="30.42" r="0.76"/><circle class="cls-3" cx="22.66" cy="30.42" r="0.76"/><circle class="cls-3" cx="24.92" cy="30.42" r="0.76"/><circle class="cls-3" cx="27.18" cy="30.42" r="0.76"/></svg>