<?xml version="1.0" encoding="UTF-8" standalone="no"?>
<!DOCTYPE svg PUBLIC "-//W3C//DTD SVG 1.1//EN" "http://www.w3.org/Graphics/SVG/1.1/DTD/svg11.dtd">
<svg width="100%" height="100%" viewBox="0 0 512 512" version="1.1" xmlns="http://www.w3.org/2000/svg" xmlns:xlink="http://www.w3.org/1999/xlink" xml:space="preserve" xmlns:serif="http://www.serif.com/" style="fill-rule:evenodd;clip-rule:evenodd;stroke-linejoin:round;stroke-miterlimit:2;">
    <g transform="matrix(0.716764,0,0,0.716764,71.0429,-10.5821)">
        <path d="M461.1,463.2L49.8,463.2L49.8,56.2L461.1,56.2L461.1,463.2ZM313.6,86.4C311.4,97.6 312,426.4 314.1,432.6C379.4,412.4 440.5,345.2 439.2,257.2C437.8,164.2 370,101.6 313.6,86.4ZM68.9,250.4C87.5,250.4 105,250.7 122.5,250.3C129.1,250.1 135.8,248.7 142.4,247.4C175.9,241.3 205,226.3 231.2,204.8C268,174.6 289.6,136.5 294.5,89.1C295.3,81.3 293.1,78.3 285.6,77C257.4,72.5 229.5,73.9 202.1,81.7C165,92.3 135.2,113.5 110.9,143.3C85.7,174.4 71.7,209.6 68.9,250.4ZM69.8,270.8C70.2,285.3 72.3,298.8 76.3,312C91.7,363 124.1,399.7 170.9,423.9C204.2,441.1 239.6,447.5 276.9,441.9C282.5,441.1 287.9,439.3 293.3,438C293.9,423.4 291.5,410.6 287.8,397.9C274,351.1 243.3,318.1 202.2,294.2C162.6,271.1 119.1,266.4 74.2,269.5C73.1,269.7 72,270.2 69.8,270.8Z" style="fill-rule:nonzero;"/>
    </g>
    <g transform="matrix(0.180756,0,0,0.156572,33.898,358.636)">
        <path d="M2103.16,743.841C1731.95,719.958 1608.21,287.969 1886.08,66.547C2001.15,-35.48 2172.64,12.267 2313.73,5.753C2383.21,5.753 2437.47,196.799 2394.04,229.366C2302.87,227.195 2239.91,81.745 2131.37,109.97C1905.6,109.97 1927.29,689.581 2181.3,637.472C2198.67,635.321 2239.91,622.293 2239.91,602.753L2237.76,433.419C2198.67,418.241 2166.11,368.303 2203.02,344.44L2457.01,335.755C2543.84,346.611 2474.38,409.536 2461.35,433.419C2465.71,474.672 2459.2,520.247 2465.71,561.52C2506.94,581.041 2487.4,622.293 2461.35,637.492C2389.72,709.122 2200.87,743.841 2103.16,743.841ZM974.337,737.327C915.715,737.327 917.886,665.698 959.139,646.157C1002.56,633.13 974.337,157.717 969.995,99.114C943.94,88.259 900.536,60.033 933.084,18.8L1543.09,16.629C1582.17,44.854 1721.11,192.476 1590.84,192.476C1530.06,168.593 1484.47,114.313 1406.31,120.826C1341.19,118.655 1280.4,118.655 1221.78,125.169L1221.78,314.023L1464.93,316.195C1482.3,300.996 1534.39,268.428 1564.76,274.942C1616.87,300.996 1523.53,474.652 1449.71,474.652C1417.14,470.31 1428.02,442.085 1406.29,429.057L1221.76,429.057L1223.93,622.274C1356.35,643.966 1495.29,622.274 1606,546.282C1708.02,574.508 1575.6,730.814 1530.01,739.479L974.337,737.327ZM43.033,737.327C-52.48,700.417 34.348,657.013 79.943,637.472L303.536,168.573C303.536,92.601 149.421,66.547 244.914,10.096L505.418,10.096L831.038,659.184C909.182,704.76 885.298,730.814 802.832,728.643L570.554,730.814L490.239,604.885L240.572,604.885L221.031,650.499C240.572,659.184 264.455,683.067 244.914,709.122C244.914,746.012 71.258,737.327 43.033,737.327ZM288.338,481.166L359.987,327.05L438.131,487.68L288.338,481.166Z"/>
    </g>
</svg>
