<?xml version="1.0" encoding="UTF-8"?>
<svg version="1.1" xmlns="http://www.w3.org/2000/svg" width="512" height="512">
<path d="M0 0 C1.98873781 -0.00571021 3.97747235 -0.01267698 5.96620178 -0.02079773 C11.34239965 -0.03867396 16.7184338 -0.03757097 22.09465241 -0.03185534 C26.59482603 -0.02875494 31.09496859 -0.03486552 35.59513777 -0.04089409 C46.21872513 -0.05492005 56.84223205 -0.05339457 67.46582031 -0.04199219 C78.39774042 -0.03051758 89.32941501 -0.04458011 100.26130277 -0.07138866 C109.67229869 -0.09359691 119.08321783 -0.10017136 128.49423808 -0.09431225 C134.10383688 -0.09095317 139.71327841 -0.0932876 145.322855 -0.11056328 C150.60157892 -0.12611176 155.8799413 -0.12198961 161.15865135 -0.10325813 C163.08623565 -0.09959381 165.01384721 -0.1026171 166.94140625 -0.11314392 C186.94463067 -0.21397112 204.08362736 3.76765987 218.97338867 18.10327148 C220.09874023 19.2421582 220.09874023 19.2421582 221.24682617 20.40405273 C221.95581055 21.09112305 222.66479492 21.77819336 223.39526367 22.48608398 C237.32803099 36.87260043 240.88139783 56.28324502 240.75476074 75.55975342 C240.75938313 77.12006561 240.76574493 78.68037343 240.77366972 80.24067235 C240.79020202 84.47987021 240.78219114 88.71870292 240.76972485 92.95790124 C240.76061022 97.54823665 240.77467542 102.13851275 240.78564453 106.72883606 C240.8033647 115.70103898 240.79961939 124.67310752 240.78799397 133.64531556 C240.77893646 140.93936917 240.77774563 148.2333853 240.78208923 155.52744293 C240.78270217 156.56812161 240.7833151 157.60880028 240.7839466 158.68101467 C240.78522558 160.79551036 240.78652243 162.91000604 240.78783697 165.02450171 C240.79922312 184.81745518 240.78615878 204.61033435 240.7646355 224.40327564 C240.74675576 241.37085696 240.74987968 258.33832884 240.76831055 275.3059082 C240.78973381 295.0373878 240.79813575 314.76880246 240.78586149 334.50029206 C240.78458736 336.60550323 240.78332988 338.71071441 240.78208923 340.8159256 C240.78116358 342.36941743 240.78116358 342.36941743 240.78021923 343.95429294 C240.77677149 351.23803565 240.78258202 358.52173702 240.79200745 365.80547333 C240.80324452 374.68378761 240.80015102 383.56196049 240.77888447 392.44025865 C240.76839869 396.96638115 240.76421006 401.49226819 240.77748108 406.01838875 C240.78946158 410.16719072 240.78275007 414.3155405 240.76157087 418.46430185 C240.75712878 419.95931207 240.75931681 421.45436106 240.76907402 422.94934604 C240.84920048 436.25400483 238.79852415 447.57889101 229.24682617 457.40405273 C225.20745282 461.15789865 221.12591288 463.58435639 215.98510742 465.57202148 C214.64959839 466.09252075 214.64959839 466.09252075 213.28710938 466.62353516 C212.27716919 467.00989136 212.27716919 467.00989136 211.24682617 467.40405273 C211.24271729 468.1998877 211.2386084 468.99572266 211.234375 469.81567383 C211.20119435 473.47085462 211.13052027 477.12442251 211.05932617 480.77905273 C211.050625 482.65657227 211.050625 482.65657227 211.04174805 484.57202148 C210.85567078 492.46996759 209.97779411 498.89021878 205.24682617 505.40405273 C199.59117078 510.67881839 195.22668216 512.55446991 187.43432617 512.65405273 C186.23163086 512.67983398 185.02893555 512.70561523 183.78979492 512.73217773 C177.92504772 512.18902584 173.47425522 509.40898552 169.24682617 505.40405273 C167.74125821 503.12853633 166.50770907 500.8324198 165.24682617 498.40405273 C159.79752896 497.87983293 154.67978115 497.60397578 149.24682617 498.40405273 C146.9164181 500.4502647 145.94867959 502.31459328 144.56323242 505.06811523 C142.19213892 509.27557492 138.77993269 511.03556775 134.24682617 512.40405273 C127.28286282 513.29748217 120.10707559 513.53330185 113.92651367 509.80639648 C109.29617145 505.94059914 106.15946973 501.092071 104.24682617 495.40405273 C104.01977539 492.26611328 104.01977539 492.26611328 104.05151367 488.79077148 C104.05650879 487.66630615 104.06150391 486.54184082 104.06665039 485.38330078 C104.0848584 483.96702393 104.10306641 482.55074707 104.12182617 481.09155273 C104.16307617 476.57467773 104.20432617 472.05780273 104.24682617 467.40405273 C89.72682617 467.40405273 75.20682617 467.40405273 60.24682617 467.40405273 C60.44331389 476.16926973 60.44331389 476.16926973 60.69726562 484.93286133 C60.78541161 492.78183513 59.98374703 498.9591936 55.24682617 505.40405273 C49.58797133 510.67691273 45.22915544 512.5544383 37.43432617 512.65405273 C36.23163086 512.67983398 35.02893555 512.70561523 33.78979492 512.73217773 C27.92504772 512.18902584 23.47425522 509.40898552 19.24682617 505.40405273 C17.74125821 503.12853633 16.50770907 500.8324198 15.24682617 498.40405273 C9.79752896 497.87983293 4.67978115 497.60397578 -0.75317383 498.40405273 C-3.0835819 500.4502647 -4.05132041 502.31459328 -5.43676758 505.06811523 C-7.80786108 509.27557492 -11.22006731 511.03556775 -15.75317383 512.40405273 C-22.71713718 513.29748217 -29.89292441 513.53330185 -36.07348633 509.80639648 C-41.46710631 505.30335096 -45.35615086 499.31135455 -46.07202148 492.26611328 C-46.11915283 490.54581909 -46.11915283 490.54581909 -46.16723633 488.79077148 C-46.22524414 486.92001953 -46.22524414 486.92001953 -46.28442383 485.01147461 C-46.31536133 483.71790039 -46.34629883 482.42432617 -46.37817383 481.09155273 C-46.4168457 479.77864258 -46.45551758 478.46573242 -46.49536133 477.11303711 C-46.589505 473.87684836 -46.67513735 470.64066339 -46.75317383 467.40405273 C-47.56214111 467.08734619 -48.3711084 466.77063965 -49.20458984 466.44433594 C-50.27378662 466.01467529 -51.3429834 465.58501465 -52.44458008 465.14233398 C-53.50104736 464.72250244 -54.55751465 464.3026709 -55.64599609 463.87011719 C-64.08413522 459.88873702 -70.06517339 452.88160537 -73.60331398 444.35538208 C-76.20945354 436.63708918 -76.17623463 429.04250774 -76.14085388 420.99679565 C-76.14503208 419.44451454 -76.15051225 417.89223648 -76.15717369 416.33996403 C-76.17158399 412.0949926 -76.1673974 407.85021605 -76.16000688 403.60523415 C-76.15526638 399.01881226 -76.16779305 394.432432 -76.17802429 389.84602356 C-76.19520206 380.86766915 -76.19605418 371.88938475 -76.19081139 362.91101818 C-76.1867655 355.6092316 -76.18821823 348.30746568 -76.19355965 341.00568008 C-76.19430807 339.96534336 -76.19505649 338.92500664 -76.19582759 337.85314456 C-76.19735912 335.7394626 -76.19889747 333.62578064 -76.20044256 331.51209868 C-76.21416464 311.69808258 -76.20873262 291.88410598 -76.19725735 272.07009079 C-76.18733177 253.96552235 -76.20025449 235.86105622 -76.22419154 217.75650357 C-76.24860981 199.14705488 -76.2581833 180.53765378 -76.25153881 161.9281894 C-76.24805182 151.48841066 -76.25024394 141.04871052 -76.26778984 130.60894394 C-76.28254621 121.71889432 -76.2831028 112.8289786 -76.26571893 103.93893151 C-76.25723358 99.40829986 -76.25499854 94.87790704 -76.27037048 90.34728813 C-76.28430226 86.18941087 -76.27934669 82.03197514 -76.26013125 77.87412287 C-76.25639665 76.38020476 -76.25921878 74.88625055 -76.2697429 73.39236484 C-76.39676831 53.95958048 -71.55812981 35.65683516 -57.79077148 21.38842773 C-56.45625147 20.0489027 -55.10531625 18.72578715 -53.75317383 17.40405273 C-52.91206055 16.51459961 -52.91206055 16.51459961 -52.05395508 15.60717773 C-48.26575975 11.90846733 -43.67243087 9.61561668 -39.00317383 7.21655273 C-38.35968994 6.88300781 -37.71620605 6.54946289 -37.05322266 6.20581055 C-24.8762443 0.21757754 -13.2875564 -0.03453719 0 0 Z M-47.44067383 34.02905273 C-58.33909262 46.5469918 -60.05647972 60.64734322 -60.02732849 76.57957458 C-60.0317859 78.11876833 -60.03710159 79.65795978 -60.04319721 81.19714791 C-60.05732651 85.4103125 -60.05904148 89.62340314 -60.05860031 93.83658803 C-60.06025293 98.38678127 -60.07332744 102.93694444 -60.08479309 107.48712158 C-60.10760431 117.42702531 -60.11555897 127.36690763 -60.12061954 137.30683398 C-60.12387993 143.51537629 -60.13040433 149.72391243 -60.13762093 155.93245125 C-60.15717886 173.12983087 -60.17358877 190.32720476 -60.17649746 207.52459621 C-60.17668503 208.6241835 -60.1768726 209.72377079 -60.17706585 210.85667891 C-60.1774321 213.08567115 -60.17779579 215.31466339 -60.17815696 217.54365563 C-60.17833978 218.65008911 -60.17852259 219.7565226 -60.17871094 220.89648438 C-60.17889149 222.00427107 -60.17907204 223.11205776 -60.17925806 224.25341374 C-60.18280161 242.21338344 -60.20983891 260.17323339 -60.24720883 278.13316154 C-60.28528857 296.58208362 -60.30465489 315.03094626 -60.30495697 333.47990853 C-60.30554148 343.83458573 -60.31402993 354.18911992 -60.34295464 364.5437603 C-60.36746359 373.35789361 -60.37475438 382.17183169 -60.35970711 390.98598986 C-60.35253724 395.4815007 -60.35339918 399.97662595 -60.37611771 404.47209358 C-60.39673328 408.59091188 -60.3940837 412.70904877 -60.37324286 416.82785989 C-60.36975296 418.31430512 -60.37463686 419.80079979 -60.3889473 421.28718024 C-60.46742362 430.00297851 -59.9821467 437.16481771 -54.75317383 444.40405273 C-47.81319305 451.3484164 -39.91949504 452.61272186 -30.35185337 452.67153955 C-29.45038043 452.6670781 -28.54890749 452.66261666 -27.62011719 452.65802002 C-26.14802874 452.66269999 -26.14802874 452.66269999 -24.64620113 452.66747451 C-21.37841104 452.67541164 -18.11080885 452.66914758 -14.84301758 452.6628418 C-12.49178967 452.66555356 -10.14056261 452.66911553 -7.78933716 452.67346191 C-1.41754695 452.68256611 4.95417837 452.67904974 11.3259697 452.67270374 C17.32320689 452.66814786 23.3204382 452.67162876 29.31767523 452.67455813 C41.91941975 452.6802538 54.52113512 452.67371553 67.12287486 452.6629574 C77.92299562 452.65402258 88.72307337 452.65557484 99.52319336 452.66479492 C112.0815206 452.67551105 124.63982232 452.67970455 137.1981535 452.67357039 C143.83988459 452.670414 150.48159175 452.67002852 157.12332153 452.67664337 C163.3679613 452.68242851 169.61252 452.67839844 175.85715103 452.66685486 C178.14643342 452.66421454 180.43572264 452.66496261 182.72500229 452.66938019 C185.8546829 452.67486181 188.98410528 452.66796965 192.11376953 452.65802002 C193.01524247 452.66248146 193.91671541 452.66694291 194.84550571 452.67153955 C204.41296477 452.61272299 212.30709489 451.34854465 219.24682617 444.40405273 C224.92880134 436.53356202 224.95419549 428.5001297 224.86828613 419.12173462 C224.87262069 417.58309841 224.87914171 416.0444671 224.8876462 414.50584829 C224.90457619 410.29861205 224.89049972 406.09197439 224.87113142 401.88476992 C224.85566455 397.33932028 224.86911667 392.7939421 224.87887573 388.24848938 C224.89338531 379.35162467 224.8811849 370.45498857 224.85976249 361.55814554 C224.83571841 351.19077656 224.83746902 340.82345959 224.8400684 330.45606892 C224.84375692 311.9526802 224.82294848 293.44939897 224.78881836 274.94604492 C224.75573775 257.00493655 224.74155868 239.06394099 224.74780273 221.12280273 C224.75457295 201.57375163 224.75208784 182.02474774 224.73244333 162.4757036 C224.73140385 161.44105543 224.73036436 160.40640726 224.72929338 159.34040611 C224.72720253 157.26255625 224.72509155 155.18470641 224.7229602 153.10685659 C224.71607551 145.88631374 224.71539351 138.66578547 224.71684265 131.44524002 C224.71828519 122.63998768 224.70854019 113.8348271 224.68489629 105.02960517 C224.67306873 100.5400207 224.66588948 96.05056385 224.67173386 91.56096458 C224.67693299 87.44529021 224.66812178 83.32988461 224.64845926 79.21425609 C224.64374775 77.73118241 224.64398304 76.2480823 224.64986962 74.76501282 C224.71257803 57.26539664 220.87229278 43.57539941 208.66479492 30.69311523 C193.07020617 15.92990198 174.6991657 15.09168645 154.35620117 15.14526367 C152.60347347 15.14254691 150.8507469 15.13898216 149.09802246 15.13464355 C144.37902475 15.12559878 139.66011541 15.12903084 134.94111633 15.13540173 C129.97758769 15.14050302 125.01406608 15.13575889 120.05053711 15.13262939 C111.71881771 15.1290017 103.3871339 15.13375732 95.05541992 15.14331055 C85.45441206 15.15419277 75.85348917 15.15066634 66.25248337 15.13965774 C57.97518568 15.13055064 49.69791342 15.12931626 41.42061234 15.13453507 C36.49186055 15.13763602 31.56314856 15.13811615 26.63439941 15.1314621 C21.99838834 15.12563923 17.3624857 15.1297749 12.72648621 15.14125061 C11.03594644 15.14387098 9.34539738 15.14317764 7.65486145 15.13872528 C-14.10619532 15.08674416 -31.63316387 17.77366333 -47.44067383 34.02905273 Z M-29.75317383 467.40405273 C-29.86096363 471.48808875 -29.9404003 475.56928953 -30.00317383 479.65405273 C-30.03668945 480.81291992 -30.07020508 481.97178711 -30.10473633 483.16577148 C-30.11762695 484.28081055 -30.13051758 485.39584961 -30.14379883 486.54467773 C-30.16474609 487.57109375 -30.18569336 488.59750977 -30.20727539 489.6550293 C-29.63312249 493.13081515 -28.5120951 494.28036841 -25.75317383 496.40405273 C-22.75317383 497.0707194 -22.75317383 497.0707194 -19.75317383 496.40405273 C-16.99425255 494.28036841 -15.87322517 493.13081515 -15.29907227 489.6550293 C-15.32001953 488.62861328 -15.3409668 487.60219727 -15.36254883 486.54467773 C-15.37543945 485.42963867 -15.38833008 484.31459961 -15.40161133 483.16577148 C-15.45188477 481.4274707 -15.45188477 481.4274707 -15.50317383 479.65405273 C-15.5212207 478.4797168 -15.53926758 477.30538086 -15.55786133 476.09545898 C-15.60497489 473.19797516 -15.67671716 470.30091078 -15.75317383 467.40405273 C-20.37317383 467.40405273 -24.99317383 467.40405273 -29.75317383 467.40405273 Z M0.24682617 467.40405273 C0.24682617 472.35405273 0.24682617 477.30405273 0.24682617 482.40405273 C4.86682617 482.40405273 9.48682617 482.40405273 14.24682617 482.40405273 C14.24682617 477.45405273 14.24682617 472.50405273 14.24682617 467.40405273 C9.62682617 467.40405273 5.00682617 467.40405273 0.24682617 467.40405273 Z M30.24682617 467.40405273 C30.13903637 471.48808875 30.0595997 475.56928953 29.99682617 479.65405273 C29.96331055 480.81291992 29.92979492 481.97178711 29.89526367 483.16577148 C29.88237305 484.28081055 29.86948242 485.39584961 29.85620117 486.54467773 C29.83525391 487.57109375 29.81430664 488.59750977 29.79272461 489.6550293 C30.36687751 493.13081515 31.4879049 494.28036841 34.24682617 496.40405273 C37.24682617 497.0707194 37.24682617 497.0707194 40.24682617 496.40405273 C43.00574745 494.28036841 44.12677483 493.13081515 44.70092773 489.6550293 C44.67998047 488.62861328 44.6590332 487.60219727 44.63745117 486.54467773 C44.62456055 485.42963867 44.61166992 484.31459961 44.59838867 483.16577148 C44.54811523 481.4274707 44.54811523 481.4274707 44.49682617 479.65405273 C44.4787793 478.4797168 44.46073242 477.30538086 44.44213867 476.09545898 C44.39502511 473.19797516 44.32328284 470.30091078 44.24682617 467.40405273 C39.62682617 467.40405273 35.00682617 467.40405273 30.24682617 467.40405273 Z M120.24682617 467.40405273 C120.13903637 471.48808875 120.0595997 475.56928953 119.99682617 479.65405273 C119.96331055 480.81291992 119.92979492 481.97178711 119.89526367 483.16577148 C119.88237305 484.28081055 119.86948242 485.39584961 119.85620117 486.54467773 C119.83525391 487.57109375 119.81430664 488.59750977 119.79272461 489.6550293 C120.36687751 493.13081515 121.4879049 494.28036841 124.24682617 496.40405273 C127.24682617 497.0707194 127.24682617 497.0707194 130.24682617 496.40405273 C133.00574745 494.28036841 134.12677483 493.13081515 134.70092773 489.6550293 C134.67998047 488.62861328 134.6590332 487.60219727 134.63745117 486.54467773 C134.62456055 485.42963867 134.61166992 484.31459961 134.59838867 483.16577148 C134.54811523 481.4274707 134.54811523 481.4274707 134.49682617 479.65405273 C134.4787793 478.4797168 134.46073242 477.30538086 134.44213867 476.09545898 C134.39502511 473.19797516 134.32328284 470.30091078 134.24682617 467.40405273 C129.62682617 467.40405273 125.00682617 467.40405273 120.24682617 467.40405273 Z M150.24682617 467.40405273 C150.24682617 472.35405273 150.24682617 477.30405273 150.24682617 482.40405273 C154.86682617 482.40405273 159.48682617 482.40405273 164.24682617 482.40405273 C164.24682617 477.45405273 164.24682617 472.50405273 164.24682617 467.40405273 C159.62682617 467.40405273 155.00682617 467.40405273 150.24682617 467.40405273 Z M180.24682617 467.40405273 C180.13903637 471.48808875 180.0595997 475.56928953 179.99682617 479.65405273 C179.96331055 480.81291992 179.92979492 481.97178711 179.89526367 483.16577148 C179.88237305 484.28081055 179.86948242 485.39584961 179.85620117 486.54467773 C179.83525391 487.57109375 179.81430664 488.59750977 179.79272461 489.6550293 C180.36687751 493.13081515 181.4879049 494.28036841 184.24682617 496.40405273 C187.24682617 497.0707194 187.24682617 497.0707194 190.24682617 496.40405273 C193.00574745 494.28036841 194.12677483 493.13081515 194.70092773 489.6550293 C194.67998047 488.62861328 194.6590332 487.60219727 194.63745117 486.54467773 C194.62456055 485.42963867 194.61166992 484.31459961 194.59838867 483.16577148 C194.54811523 481.4274707 194.54811523 481.4274707 194.49682617 479.65405273 C194.4787793 478.4797168 194.46073242 477.30538086 194.44213867 476.09545898 C194.39502511 473.19797516 194.32328284 470.30091078 194.24682617 467.40405273 C189.62682617 467.40405273 185.00682617 467.40405273 180.24682617 467.40405273 Z " fill="#000000" transform="translate(173.753173828125,-0.404052734375)"/>
<path d="M0 0 C1.93272559 -0.00706599 3.86544565 -0.01581386 5.79815674 -0.02610779 C11.02556764 -0.04853644 16.25267483 -0.04567709 21.48011541 -0.03678632 C25.85368452 -0.03166179 30.22719728 -0.03898096 34.60076058 -0.04625839 C44.92366951 -0.06323708 55.24643055 -0.05971243 65.56933594 -0.04296875 C76.19743435 -0.02605227 86.82512189 -0.04188025 97.45317543 -0.07419163 C106.59831801 -0.10093514 115.74333308 -0.10815058 124.88851082 -0.09967655 C130.34159791 -0.0947609 135.79443793 -0.09688902 141.24749374 -0.11746407 C146.37771906 -0.13589578 151.50735614 -0.12977111 156.63755035 -0.10526466 C158.51275722 -0.10028035 160.38800949 -0.10368419 162.26317978 -0.11641312 C176.25149904 -0.203805 187.43819738 1.23997443 197.97705078 11.43579102 C207.52369203 21.96258023 208.32806254 33.77937405 208.28344727 47.44116211 C208.2891594 49.02906268 208.29612691 50.61695915 208.304245 52.20484924 C208.32209939 56.492176 208.32102253 60.77929723 208.31530261 65.06664991 C208.31219923 68.65733469 208.31831601 72.24798065 208.32434136 75.83865988 C208.33835992 84.31573162 208.33684785 92.79270253 208.32543945 101.26977539 C208.31396352 109.9892329 208.32803115 118.70838262 208.35483593 127.42779958 C208.37705177 134.93812728 208.38361701 142.44835879 208.37775952 149.95871699 C208.37440246 154.43368761 208.37672111 158.90846106 208.39401054 163.38340378 C208.4095716 167.59431046 208.40542364 171.80476422 208.3867054 176.01565361 C208.38304456 177.55222556 208.38605402 179.08883176 208.39659119 180.62537193 C208.48191805 194.10745278 206.57281037 205.56251032 196.87939453 215.53344727 C185.80231904 225.82752782 174.08741174 226.12207255 159.75878906 226.06689453 C157.82606347 226.07396052 155.89334342 226.08270839 153.96063232 226.09300232 C148.73322142 226.11543097 143.50611424 226.11257162 138.27867365 226.10368085 C133.90510455 226.09855632 129.53159178 226.10587549 125.15802848 226.11315292 C114.83511955 226.13013161 104.51235851 226.12660696 94.18945312 226.10986328 C83.56135471 226.0929468 72.93366718 226.10877478 62.30561364 226.14108616 C53.16047105 226.16782967 44.01545599 226.17504511 34.87027824 226.16657108 C29.41719115 226.16165543 23.96435113 226.16378355 18.51129532 226.1843586 C13.38107 226.20279031 8.25143293 226.19666565 3.12123871 226.17215919 C1.24603184 226.16717488 -0.62922043 226.17057872 -2.50439072 226.18330765 C-16.49270998 226.27069953 -27.67940832 224.8269201 -38.21826172 214.63110352 C-47.81559376 204.0484191 -48.58996318 192.12090784 -48.55419922 178.38500977 C-48.55876865 176.83946505 -48.56407647 175.29392236 -48.57008362 173.74838257 C-48.57896482 170.52935456 -48.5766445 167.3105754 -48.56665039 164.09155273 C-48.55509623 159.9688656 -48.57549461 155.84702686 -48.60456753 151.72445107 C-48.62290305 148.54168269 -48.62264365 145.35911941 -48.61693001 142.17631149 C-48.61677684 140.65567194 -48.62281727 139.13501844 -48.63522148 137.61442947 C-48.65010152 135.49395167 -48.63948384 133.37506656 -48.62231445 131.25463867 C-48.62214828 130.05014069 -48.62198212 128.8456427 -48.62181091 127.60464478 C-48.02385473 123.94059528 -47.02377212 122.7703047 -44.12060547 120.53344727 C-42.12060547 120.00219727 -42.12060547 120.00219727 -40.12060547 120.03344727 C-39.46060547 120.02313477 -38.80060547 120.01282227 -38.12060547 120.00219727 C-35.16492731 120.78729928 -34.02289485 122.16038353 -32.12060547 124.53344727 C-31.63526917 127.52871704 -31.63526917 127.52871704 -31.65405273 131.07104492 C-31.65174652 131.7188089 -31.64944031 132.36657288 -31.64706421 133.03396606 C-31.64443917 134.43733398 -31.65085793 135.84074173 -31.66531563 137.24403763 C-31.68727117 139.47385978 -31.68346232 141.70232997 -31.6728363 143.93222046 C-31.65120017 149.47417228 -31.66839566 155.01582433 -31.69433594 160.55773926 C-31.71585681 165.23613834 -31.71750626 169.91366663 -31.6914196 174.59205246 C-31.68710808 176.7737499 -31.71159546 178.95388427 -31.73695374 181.13540649 C-31.74675244 189.89643265 -30.83733936 197.57293482 -24.56324768 204.17129517 C-15.752913 211.26140304 -3.35541822 209.81980219 7.28173828 209.79223633 C9.04184107 209.79494963 10.80194272 209.79851247 12.56204224 209.80285645 C17.32232088 209.81194229 22.08251243 209.80845192 26.84279251 209.80209827 C31.83538286 209.79701855 36.82796598 209.8017352 41.82055664 209.80487061 C50.20313855 209.8085045 58.58568517 209.80372627 66.96826172 209.79418945 C76.64594953 209.78330602 86.32355305 209.78683201 96.00123882 209.79784226 C104.32506625 209.80693155 112.64886838 209.80819239 120.97269917 209.80296493 C125.93769524 209.79985426 130.90265176 209.79941102 135.86764526 209.8060379 C140.53640545 209.81183463 145.20505744 209.80777199 149.873806 209.79624939 C151.5825673 209.79361523 153.29133778 209.79434653 155.00009537 209.79877472 C169.83075002 210.35529668 169.83075002 210.35529668 183.19189453 204.97094727 C183.80677734 204.5365332 184.42166016 204.10211914 185.05517578 203.65454102 C191.7417724 195.87976165 191.45961226 186.79979364 191.4128418 177.07470703 C191.41990973 175.52311384 191.4286584 173.97152755 191.43894958 172.41995239 C191.46135563 168.22768479 191.45852457 164.03579629 191.44962811 159.84349179 C191.44449972 156.33467352 191.45182576 152.82592534 191.45910019 149.31711429 C191.47607131 141.03523982 191.47256156 132.75354973 191.45581055 124.47167969 C191.43889059 115.94696678 191.4547282 107.42276601 191.48703343 98.89810902 C191.5137808 91.56021401 191.52099151 84.22247791 191.51251835 76.88453907 C191.50760427 72.51018111 191.50972201 68.13613114 191.53030586 63.76181221 C191.54874432 59.64685525 191.54260575 55.53263142 191.51810646 51.41771317 C191.51312435 49.91416852 191.51652032 48.41056722 191.52925491 46.90706825 C191.60212754 37.55852326 191.0936931 29.01973682 184.32228947 21.89511967 C175.50862392 14.80588756 163.12121415 16.24707419 152.47705078 16.2746582 C150.71694799 16.2719449 148.95684634 16.26838206 147.19674683 16.26403809 C142.43646818 16.25495224 137.67627664 16.25844261 132.91599655 16.26479626 C127.9234062 16.26987598 122.93082308 16.26515933 117.93823242 16.26202393 C109.55565051 16.25839003 101.17310389 16.26316826 92.79052734 16.27270508 C83.11283953 16.28358851 73.43523601 16.28006252 63.75755024 16.26905227 C55.43372281 16.25996298 47.10992069 16.25870214 38.7860899 16.26392961 C33.82109382 16.26704027 28.8561373 16.26748351 23.8911438 16.26085663 C19.22238361 16.2550599 14.55373162 16.25912254 9.88498306 16.27064514 C8.17622176 16.2732793 6.46745129 16.272548 4.7586937 16.26811981 C-10.07196096 15.71159785 -10.07196096 15.71159785 -23.43310547 21.09594727 C-24.04798828 21.53036133 -24.66287109 21.96477539 -25.29638672 22.41235352 C-31.47000657 29.59067381 -31.68076729 37.66517405 -31.60646057 46.7403183 C-31.58901583 48.9355626 -31.59680018 51.12951143 -31.61071777 53.32476807 C-31.63589679 57.97775258 -31.63057323 62.63042251 -31.62060547 67.28344727 C-31.60905385 72.69364185 -31.61025255 78.10319894 -31.64466858 83.51331329 C-31.65174003 85.67011181 -31.63512406 87.82588739 -31.61755371 89.98260498 C-31.62436157 91.29456848 -31.63116943 92.60653198 -31.63818359 93.95825195 C-31.63500122 95.11025085 -31.63181885 96.26224976 -31.62854004 97.44915771 C-32.22553868 101.19117365 -33.48764887 102.85837503 -36.12060547 105.53344727 C-38.12060547 106.16235352 -38.12060547 106.16235352 -40.12060547 106.09594727 C-40.78060547 106.09723633 -41.44060547 106.09852539 -42.12060547 106.09985352 C-45.06114295 105.26708411 -46.2181276 103.91005306 -48.12060547 101.53344727 C-48.62854004 98.47570801 -48.62854004 98.47570801 -48.63818359 94.84399414 C-48.64519287 94.17993561 -48.65220215 93.51587708 -48.65942383 92.83169556 C-48.6770118 90.63810229 -48.66536911 88.44580357 -48.65185547 86.25219727 C-48.65455274 84.71724197 -48.65843713 83.18228834 -48.66345215 81.64733887 C-48.66935037 78.42594173 -48.66078384 75.20498811 -48.64208984 71.98364258 C-48.61945309 67.8861878 -48.63232252 63.78979 -48.6563797 59.69237518 C-48.6709613 56.51782544 -48.66617318 53.34351837 -48.65586853 50.16896057 C-48.65322714 48.66052624 -48.65637833 47.1520688 -48.66578674 45.6436615 C-48.73168936 32.09228213 -46.86647995 20.55834474 -37.12060547 10.53344727 C-26.04352997 0.23936671 -14.32862268 -0.05517802 0 0 Z " fill="#000000" transform="translate(176.12060546875,29.466552734375)"/>
<path d="M0 0 C0.76830328 -0.00623996 1.53660656 -0.01247993 2.32819176 -0.01890898 C4.90481554 -0.03487462 7.48049797 -0.02222126 10.05712891 -0.00964355 C11.90342766 -0.0150631 13.74972209 -0.02218482 15.5960083 -0.03088379 C20.61251653 -0.04913998 25.6286962 -0.04204012 30.64521027 -0.02936745 C35.89108679 -0.01925168 41.13693489 -0.02862916 46.3828125 -0.03491211 C55.19292256 -0.04219266 64.00289857 -0.03259009 72.81298828 -0.0135498 C83.00368938 0.00821968 93.19407038 0.0011686 103.38476372 -0.02085543 C112.12881145 -0.03899778 120.87276273 -0.04157344 129.6168232 -0.03110075 C134.84166843 -0.02485942 140.06636313 -0.02404777 145.29119873 -0.0372467 C150.20293945 -0.04878762 155.11426684 -0.04081165 160.02596283 -0.01766968 C161.83034325 -0.01237318 163.63475836 -0.01391241 165.43912506 -0.02272034 C167.8990165 -0.03362257 170.35757663 -0.01997792 172.81738281 0 C173.89306046 -0.01338433 173.89306046 -0.01338433 174.99046898 -0.02703905 C178.32803107 0.02567953 180.13456113 0.305682 182.85079956 2.30971527 C185.15723754 5.56414946 184.98138157 8.75350724 184.93994141 12.59777832 C184.94376831 13.37931778 184.94759521 14.16085724 184.95153809 14.96607971 C184.95425522 16.61603079 184.94690775 18.26602508 184.93017578 19.91589355 C184.90878949 22.43388586 184.92996645 24.94901599 184.95556641 27.46691895 C184.95292253 29.07304501 184.9477963 30.67916929 184.93994141 32.28527832 C184.94803833 33.03437973 184.95613525 33.78348114 184.96447754 34.55528259 C184.90396954 37.95032751 184.55795567 40.24935886 182.85079956 43.20672512 C179.62321749 46.24809016 177.03512899 46.20573573 172.81738281 46.13612366 C172.04907953 46.14321804 171.28077625 46.15031243 170.48919106 46.1576218 C167.91237117 46.17523701 165.3370527 46.15708026 162.76025391 46.13903809 C160.91395378 46.14417558 159.06765854 46.15145558 157.22137451 46.16072083 C152.20478981 46.17926466 147.18873531 46.16627743 142.17217255 46.14663053 C136.92629865 46.13026734 131.68045896 46.13905367 126.43457031 46.14414978 C117.62442537 46.14867334 108.81449257 46.13278458 100.00439453 46.1048584 C89.81368423 46.07280536 79.62335657 46.0728214 69.43261909 46.09007317 C59.63591837 46.10592808 49.83935814 46.09921136 40.04266357 46.08213615 C35.87046578 46.07525732 31.69838033 46.07630665 27.52618408 46.08368111 C22.6144258 46.09133317 17.70310382 46.07925309 12.79141998 46.0518322 C10.98704575 46.04493595 9.18263086 46.04486364 7.37825775 46.05204773 C4.91834895 46.06071442 2.45979528 46.04483503 0 46.02259827 C-0.71711843 46.03083903 -1.43423687 46.0390798 -2.17308617 46.04757029 C-5.50532388 45.99182396 -7.31853499 45.70848154 -10.03341675 43.71246243 C-12.37794124 40.39479339 -12.163402 37.07925846 -12.12255859 33.16418457 C-12.1263855 32.35807739 -12.1302124 31.55197021 -12.13415527 30.72143555 C-12.13687249 29.02021025 -12.12952449 27.31894304 -12.11279297 25.61779785 C-12.09137849 23.01642561 -12.11259878 20.41781485 -12.13818359 17.81652832 C-12.13554028 16.16157432 -12.13041523 14.50662203 -12.12255859 12.85168457 C-12.13065552 12.0755481 -12.13875244 11.29941162 -12.14709473 10.49975586 C-12.09046106 7.23183029 -11.94518624 5.00879217 -10.03341675 2.30298615 C-6.74716673 -0.11254499 -3.92504653 -0.04883816 0 0 Z M4.40869141 15.50793457 C4.40869141 20.45793457 4.40869141 25.40793457 4.40869141 30.50793457 C58.52869141 30.50793457 112.64869141 30.50793457 168.40869141 30.50793457 C168.40869141 25.55793457 168.40869141 20.60793457 168.40869141 15.50793457 C114.28869141 15.50793457 60.16869141 15.50793457 4.40869141 15.50793457 Z " fill="#000000" transform="translate(169.59130859375,179.4920654296875)"/>
<path d="M0 0 C0.76830328 -0.00623996 1.53660656 -0.01247993 2.32819176 -0.01890898 C4.90481554 -0.03487462 7.48049797 -0.02222126 10.05712891 -0.00964355 C11.90342766 -0.0150631 13.74972209 -0.02218482 15.5960083 -0.03088379 C20.61251653 -0.04913998 25.6286962 -0.04204012 30.64521027 -0.02936745 C35.89108679 -0.01925168 41.13693489 -0.02862916 46.3828125 -0.03491211 C55.19292256 -0.04219266 64.00289857 -0.03259009 72.81298828 -0.0135498 C83.00368938 0.00821968 93.19407038 0.0011686 103.38476372 -0.02085543 C112.12881145 -0.03899778 120.87276273 -0.04157344 129.6168232 -0.03110075 C134.84166843 -0.02485942 140.06636313 -0.02404777 145.29119873 -0.0372467 C150.20293945 -0.04878762 155.11426684 -0.04081165 160.02596283 -0.01766968 C161.83034325 -0.01237318 163.63475836 -0.01391241 165.43912506 -0.02272034 C167.8990165 -0.03362257 170.35757663 -0.01997792 172.81738281 0 C173.89306046 -0.01338433 173.89306046 -0.01338433 174.99046898 -0.02703905 C178.32803107 0.02567953 180.13456113 0.305682 182.85079956 2.30971527 C185.15723754 5.56414946 184.98138157 8.75350724 184.93994141 12.59777832 C184.94376831 13.37931778 184.94759521 14.16085724 184.95153809 14.96607971 C184.95425522 16.61603079 184.94690775 18.26602508 184.93017578 19.91589355 C184.90878949 22.43388586 184.92996645 24.94901599 184.95556641 27.46691895 C184.95292253 29.07304501 184.9477963 30.67916929 184.93994141 32.28527832 C184.94803833 33.03437973 184.95613525 33.78348114 184.96447754 34.55528259 C184.90396954 37.95032751 184.55795567 40.24935886 182.85079956 43.20672512 C179.62321749 46.24809016 177.03512899 46.20573573 172.81738281 46.13612366 C172.04907953 46.14321804 171.28077625 46.15031243 170.48919106 46.1576218 C167.91237117 46.17523701 165.3370527 46.15708026 162.76025391 46.13903809 C160.91395378 46.14417558 159.06765854 46.15145558 157.22137451 46.16072083 C152.20478981 46.17926466 147.18873531 46.16627743 142.17217255 46.14663053 C136.92629865 46.13026734 131.68045896 46.13905367 126.43457031 46.14414978 C117.62442537 46.14867334 108.81449257 46.13278458 100.00439453 46.1048584 C89.81368423 46.07280536 79.62335657 46.0728214 69.43261909 46.09007317 C59.63591837 46.10592808 49.83935814 46.09921136 40.04266357 46.08213615 C35.87046578 46.07525732 31.69838033 46.07630665 27.52618408 46.08368111 C22.6144258 46.09133317 17.70310382 46.07925309 12.79141998 46.0518322 C10.98704575 46.04493595 9.18263086 46.04486364 7.37825775 46.05204773 C4.91834895 46.06071442 2.45979528 46.04483503 0 46.02259827 C-0.71711843 46.03083903 -1.43423687 46.0390798 -2.17308617 46.04757029 C-5.50532388 45.99182396 -7.31853499 45.70848154 -10.03341675 43.71246243 C-12.37794124 40.39479339 -12.163402 37.07925846 -12.12255859 33.16418457 C-12.1263855 32.35807739 -12.1302124 31.55197021 -12.13415527 30.72143555 C-12.13687249 29.02021025 -12.12952449 27.31894304 -12.11279297 25.61779785 C-12.09137849 23.01642561 -12.11259878 20.41781485 -12.13818359 17.81652832 C-12.13554028 16.16157432 -12.13041523 14.50662203 -12.12255859 12.85168457 C-12.13065552 12.0755481 -12.13875244 11.29941162 -12.14709473 10.49975586 C-12.09046106 7.23183029 -11.94518624 5.00879217 -10.03341675 2.30298615 C-6.74716673 -0.11254499 -3.92504653 -0.04883816 0 0 Z M4.40869141 15.50793457 C4.40869141 20.45793457 4.40869141 25.40793457 4.40869141 30.50793457 C58.52869141 30.50793457 112.64869141 30.50793457 168.40869141 30.50793457 C168.40869141 25.55793457 168.40869141 20.60793457 168.40869141 15.50793457 C114.28869141 15.50793457 60.16869141 15.50793457 4.40869141 15.50793457 Z " fill="#000000" transform="translate(169.59130859375,119.4920654296875)"/>
<path d="M0 0 C0.76830328 -0.00623996 1.53660656 -0.01247993 2.32819176 -0.01890898 C4.90481554 -0.03487462 7.48049797 -0.02222126 10.05712891 -0.00964355 C11.90342766 -0.0150631 13.74972209 -0.02218482 15.5960083 -0.03088379 C20.61251653 -0.04913998 25.6286962 -0.04204012 30.64521027 -0.02936745 C35.89108679 -0.01925168 41.13693489 -0.02862916 46.3828125 -0.03491211 C55.19292256 -0.04219266 64.00289857 -0.03259009 72.81298828 -0.0135498 C83.00368938 0.00821968 93.19407038 0.0011686 103.38476372 -0.02085543 C112.12881145 -0.03899778 120.87276273 -0.04157344 129.6168232 -0.03110075 C134.84166843 -0.02485942 140.06636313 -0.02404777 145.29119873 -0.0372467 C150.20293945 -0.04878762 155.11426684 -0.04081165 160.02596283 -0.01766968 C161.83034325 -0.01237318 163.63475836 -0.01391241 165.43912506 -0.02272034 C167.8990165 -0.03362257 170.35757663 -0.01997792 172.81738281 0 C173.89306046 -0.01338433 173.89306046 -0.01338433 174.99046898 -0.02703905 C178.32803107 0.02567953 180.13456113 0.305682 182.85079956 2.30971527 C185.15723754 5.56414946 184.98138157 8.75350724 184.93994141 12.59777832 C184.94376831 13.37931778 184.94759521 14.16085724 184.95153809 14.96607971 C184.95425522 16.61603079 184.94690775 18.26602508 184.93017578 19.91589355 C184.90878949 22.43388586 184.92996645 24.94901599 184.95556641 27.46691895 C184.95292253 29.07304501 184.9477963 30.67916929 184.93994141 32.28527832 C184.94803833 33.03437973 184.95613525 33.78348114 184.96447754 34.55528259 C184.90396954 37.95032751 184.55795567 40.24935886 182.85079956 43.20672512 C179.62321749 46.24809016 177.03512899 46.20573573 172.81738281 46.13612366 C172.04907953 46.14321804 171.28077625 46.15031243 170.48919106 46.1576218 C167.91237117 46.17523701 165.3370527 46.15708026 162.76025391 46.13903809 C160.91395378 46.14417558 159.06765854 46.15145558 157.22137451 46.16072083 C152.20478981 46.17926466 147.18873531 46.16627743 142.17217255 46.14663053 C136.92629865 46.13026734 131.68045896 46.13905367 126.43457031 46.14414978 C117.62442537 46.14867334 108.81449257 46.13278458 100.00439453 46.1048584 C89.81368423 46.07280536 79.62335657 46.0728214 69.43261909 46.09007317 C59.63591837 46.10592808 49.83935814 46.09921136 40.04266357 46.08213615 C35.87046578 46.07525732 31.69838033 46.07630665 27.52618408 46.08368111 C22.6144258 46.09133317 17.70310382 46.07925309 12.79141998 46.0518322 C10.98704575 46.04493595 9.18263086 46.04486364 7.37825775 46.05204773 C4.91834895 46.06071442 2.45979528 46.04483503 0 46.02259827 C-0.71711843 46.03083903 -1.43423687 46.0390798 -2.17308617 46.04757029 C-5.50532388 45.99182396 -7.31853499 45.70848154 -10.03341675 43.71246243 C-12.37794124 40.39479339 -12.163402 37.07925846 -12.12255859 33.16418457 C-12.1263855 32.35807739 -12.1302124 31.55197021 -12.13415527 30.72143555 C-12.13687249 29.02021025 -12.12952449 27.31894304 -12.11279297 25.61779785 C-12.09137849 23.01642561 -12.11259878 20.41781485 -12.13818359 17.81652832 C-12.13554028 16.16157432 -12.13041523 14.50662203 -12.12255859 12.85168457 C-12.13065552 12.0755481 -12.13875244 11.29941162 -12.14709473 10.49975586 C-12.09046106 7.23183029 -11.94518624 5.00879217 -10.03341675 2.30298615 C-6.74716673 -0.11254499 -3.92504653 -0.04883816 0 0 Z M4.40869141 15.50793457 C4.40869141 20.45793457 4.40869141 25.40793457 4.40869141 30.50793457 C58.52869141 30.50793457 112.64869141 30.50793457 168.40869141 30.50793457 C168.40869141 25.55793457 168.40869141 20.60793457 168.40869141 15.50793457 C114.28869141 15.50793457 60.16869141 15.50793457 4.40869141 15.50793457 Z " fill="#000000" transform="translate(169.59130859375,59.4920654296875)"/>
</svg>
