<?xml version="1.0" encoding="iso-8859-1"?>
<!-- Uploaded to: SVG Repo, www.svgrepo.com, Generator: SVG Repo Mixer Tools -->
<svg fill="#000000" height="800px" width="800px" version="1.1" id="Layer_1" xmlns="http://www.w3.org/2000/svg" xmlns:xlink="http://www.w3.org/1999/xlink" 
	 viewBox="0 0 299.862 299.862" xml:space="preserve">
<g>
	<g>
		<g>
			<path d="M211.631,90.082h-123.4c-3.412,0-6.17,2.758-6.17,6.17v197.44c0,3.412,2.758,6.17,6.17,6.17h123.4
				c3.412,0,6.17-2.758,6.17-6.17V96.252C217.801,92.84,215.043,90.082,211.631,90.082z M205.461,287.522H94.401v-185.1h111.06
				V287.522z"/>
			<path d="M112.911,151.782h24.68c3.412,0,6.17-2.758,6.17-6.17v-24.68c0-3.412-2.758-6.17-6.17-6.17h-24.68
				c-3.412,0-6.17,2.758-6.17,6.17v24.68C106.741,149.024,109.499,151.782,112.911,151.782z M119.081,127.102h12.34v12.34h-12.34
				V127.102z"/>
			<path d="M162.271,151.782h24.68c3.412,0,6.17-2.758,6.17-6.17v-24.68c0-3.412-2.758-6.17-6.17-6.17h-24.68
				c-3.412,0-6.17,2.758-6.17,6.17v24.68C156.101,149.024,158.859,151.782,162.271,151.782z M168.441,127.102h12.34v12.34h-12.34
				V127.102z"/>
			<path d="M162.271,201.142h24.68c3.412,0,6.17-2.758,6.17-6.17v-24.68c0-3.412-2.758-6.17-6.17-6.17h-24.68
				c-3.412,0-6.17,2.758-6.17,6.17v24.68C156.101,198.384,158.859,201.142,162.271,201.142z M168.441,176.462h12.34v12.34h-12.34
				V176.462z"/>
			<path d="M112.911,201.142h24.68c3.412,0,6.17-2.758,6.17-6.17v-24.68c0-3.412-2.758-6.17-6.17-6.17h-24.68
				c-3.412,0-6.17,2.758-6.17,6.17v24.68C106.741,198.384,109.499,201.142,112.911,201.142z M119.081,176.462h12.34v12.34h-12.34
				V176.462z"/>
			<path d="M162.271,250.502h24.68c3.412,0,6.17-2.758,6.17-6.17v-24.68c0-3.412-2.758-6.17-6.17-6.17h-24.68
				c-3.412,0-6.17,2.758-6.17,6.17v24.68C156.101,247.744,158.859,250.502,162.271,250.502z M168.441,225.822h12.34v12.34h-12.34
				V225.822z"/>
			<path d="M112.911,250.502h24.68c3.412,0,6.17-2.758,6.17-6.17v-24.68c0-3.412-2.758-6.17-6.17-6.17h-24.68
				c-3.412,0-6.17,2.758-6.17,6.17v24.68C106.741,247.744,109.499,250.502,112.911,250.502z M119.081,225.822h12.34v12.34h-12.34
				V225.822z"/>
			<path d="M130.989,58.411c-2.412,2.412-2.412,6.306,0,8.724c2.419,2.412,6.312,2.412,8.724,0c7.219-7.219,18.967-7.219,26.185,0
				c1.203,1.203,2.783,1.808,4.362,1.808s3.159-0.605,4.362-1.808c2.412-2.419,2.412-6.312,0-8.724
				C162.598,46.386,143.014,46.386,130.989,58.411z"/>
			<path d="M192.072,49.687c2.412-2.412,2.412-6.312,0-8.724c-10.483-10.489-24.433-16.27-39.266-16.27
				c-14.839,0-28.783,5.781-39.266,16.27c-2.412,2.412-2.412,6.318,0,8.724c1.203,1.203,2.783,1.808,4.362,1.808
				c1.573,0,3.153-0.605,4.362-1.808c8.157-8.157,19.004-12.655,30.542-12.655s22.385,4.498,30.542,12.655
				C185.76,52.099,189.66,52.099,192.072,49.687z"/>
			<path d="M104.816,32.232c12.815-12.821,29.863-19.886,47.99-19.886c18.127,0,35.175,7.065,47.99,19.886
				c1.203,1.203,2.783,1.808,4.362,1.808s3.159-0.605,4.356-1.808c2.419-2.419,2.419-6.306,0-8.724
				C194.374,8.354,174.222,0,152.806,0c-21.416,0-41.567,8.354-56.715,23.508c-2.412,2.419-2.412,6.306,0,8.724
				C98.51,34.651,102.403,34.651,104.816,32.232z"/>
		</g>
	</g>
</g>
</svg>