<?xml version="1.0" encoding="utf-8"?>
<!-- Uploaded to: SVG Repo, www.svgrepo.com, Generator: SVG Repo Mixer Tools -->
<svg fill="#000000" width="800px" height="800px" viewBox="0 0 32 32" version="1.1" xmlns="http://www.w3.org/2000/svg">
<title>temperature-arrow-up</title>
<path d="M12.75 6.008c0-6.246-9.5-6.246-9.5 0v13.238c-1.235 1.224-2 2.921-2 4.796 0 3.728 3.022 6.75 6.75 6.75s6.75-3.022 6.75-6.75c0-1.875-0.765-3.572-2-4.796l-0.001-0zM8 29.25c-2.9-0-5.25-2.351-5.25-5.251 0-1.553 0.674-2.948 1.745-3.909l0.005-0.004 0.006-0.012c0.13-0.122 0.215-0.29 0.231-0.477l0-0.003c0.001-0.014 0.007-0.024 0.008-0.038l0.006-0.029v-13.52c-0.003-0.053-0.005-0.115-0.005-0.178 0-1.704 1.381-3.085 3.085-3.085 0.060 0 0.12 0.002 0.179 0.005l-0.008-0c0.051-0.003 0.111-0.005 0.17-0.005 1.704 0 3.085 1.381 3.085 3.085 0 0.063-0.002 0.125-0.006 0.186l0-0.008v13.52l0.006 0.029c0 0.014 0.006 0.024 0.008 0.038 0.016 0.19 0.101 0.358 0.23 0.479l0 0 0.006 0.012c1.076 0.966 1.75 2.361 1.75 3.913 0 2.9-2.35 5.25-5.25 5.251h-0zM8.75 21.367v-15.367c0-0.414-0.336-0.75-0.75-0.75s-0.75 0.336-0.75 0.75v0 15.367c-1.164 0.338-2 1.394-2 2.646 0 1.519 1.231 2.75 2.75 2.75s2.75-1.231 2.75-2.75c0-1.252-0.836-2.308-1.981-2.641l-0.019-0.005zM30.531 9.47l-6-6c-0.025-0.025-0.064-0.017-0.092-0.038-0.052-0.041-0.089-0.099-0.152-0.125-0.050-0.013-0.108-0.020-0.168-0.020-0.010 0-0.020 0-0.030 0.001l0.001-0c-0.041-0.009-0.088-0.014-0.136-0.014-0.004 0-0.008 0-0.012 0h0.001c-0.184 0.006-0.351 0.079-0.475 0.197l0-0-5.999 6c-0.135 0.136-0.218 0.322-0.218 0.528 0 0.414 0.336 0.75 0.75 0.75 0.206 0 0.393-0.083 0.529-0.218l4.719-4.72v22.189c0 0.414 0.336 0.75 0.75 0.75s0.75-0.336 0.75-0.75v0-22.188l4.719 4.719c0.136 0.135 0.323 0.218 0.529 0.218 0.415 0 0.751-0.336 0.751-0.751 0-0.206-0.083-0.393-0.218-0.528l0 0z"></path>
</svg>