<?xml version='1.0' encoding='iso-8859-1'?>
<!DOCTYPE svg PUBLIC '-//W3C//DTD SVG 1.1//EN' 'http://www.w3.org/Graphics/SVG/1.1/DTD/svg11.dtd'>
<!-- Uploaded to: SVG Repo, www.svgrepo.com, Generator: SVG Repo Mixer Tools -->
<svg fill="#000000" height="800px" width="800px" version="1.1" xmlns="http://www.w3.org/2000/svg" viewBox="0 0 315 315" xmlns:xlink="http://www.w3.org/1999/xlink" enable-background="new 0 0 315 315">
  <g>
    <path d="M285.333,0H29.667c-3.866,0-7,3.134-7,7v301c0,3.866,3.134,7,7,7h255.666c3.866,0,7-3.134,7-7V7   C292.333,3.134,289.199,0,285.333,0z M278.333,14v52.127H36.667V14H278.333z M36.667,301V80.127h241.666V301H36.667z"/>
    <circle cx="70.077" cy="40.063" r="8.29"/>
    <circle cx="101.903" cy="40.063" r="8.29"/>
    <circle cx="213.096" cy="40.063" r="8.29"/>
    <circle cx="244.922" cy="40.063" r="8.29"/>
    <path d="m157.5,60.916c11.499,0 20.855-9.355 20.855-20.854 0-11.498-9.356-20.852-20.855-20.852s-20.854,9.354-20.854,20.852c-2.84217e-14,11.499 9.355,20.854 20.854,20.854zm0-27.706c3.779,0 6.855,3.073 6.855,6.852 0,3.779-3.075,6.854-6.855,6.854s-6.854-3.075-6.854-6.854c0-3.779 3.075-6.852 6.854-6.852z"/>
    <path d="m253.213,135.05h-191.426c-3.866,0-7,3.134-7,7v133.83c0,3.866 3.134,7 7,7h191.426c3.866,0 7-3.134 7-7v-133.83c5.68434e-14-3.866-3.134-7-7-7zm-7,133.83h-177.426v-119.83h177.426v119.83z"/>
    <path d="m253.213,102.142h-191.426c-3.866,0-7,3.134-7,7 0,3.866 3.134,7 7,7h191.426c3.866,0 7-3.134 7-7 5.68434e-14-3.867-3.134-7-7-7z"/>
    <path d="m177.718,229.927c-2.639,2.547-6.625,6.396-6.625,13.701 0,3.866 3.134,7 7,7 3.866,0 7-3.134 7-7 0-1.222 0.241-1.595 2.35-3.631 2.639-2.547 6.625-6.396 6.625-13.701 0-7.304-3.986-11.153-6.624-13.701-2.109-2.036-2.351-2.41-2.351-3.633 0-1.221 0.241-1.593 2.349-3.628 2.639-2.548 6.626-6.398 6.626-13.702 0-7.305-3.987-11.154-6.626-13.701-2.107-2.035-2.349-2.407-2.349-3.628 0-3.866-3.134-7-7-7-3.866,0-7,3.134-7,7 0,7.304 3.987,11.153 6.625,13.7 2.108,2.035 2.35,2.408 2.35,3.629 0,1.222-0.241,1.595-2.35,3.63-2.639,2.548-6.625,6.396-6.625,13.7 0,7.306 3.987,11.155 6.625,13.703 2.108,2.036 2.35,2.409 2.35,3.631s-0.242,1.595-2.35,3.631z"/>
    <path d="m127.559,229.926c-2.639,2.548-6.626,6.397-6.626,13.702 0,3.866 3.134,7 7,7 3.866,0 7-3.134 7-7 0-1.221 0.241-1.595 2.351-3.63 2.639-2.548 6.626-6.397 6.626-13.702s-3.987-11.154-6.626-13.702c-2.109-2.036-2.351-2.409-2.351-3.632 0-1.22 0.241-1.593 2.35-3.628 2.639-2.547 6.627-6.396 6.627-13.702 0-7.305-3.988-11.154-6.627-13.701-2.108-2.035-2.35-2.408-2.35-3.628 0-3.866-3.134-7-7-7-3.866,0-7,3.134-7,7 0,7.304 3.988,11.153 6.627,13.7 2.108,2.035 2.35,2.408 2.35,3.629 0,1.221-0.241,1.595-2.351,3.63-2.639,2.547-6.626,6.396-6.626,13.7 0,7.306 3.987,11.156 6.627,13.704 2.108,2.035 2.35,2.409 2.35,3.63s-0.242,1.595-2.351,3.63z"/>
  </g>
</svg>